<?xml version="1.0" standalone="no"?>
<!DOCTYPE svg PUBLIC "-//W3C//DTD SVG 1.1//EN"
  "http://www.w3.org/Graphics/SVG/1.1/DTD/svg11.dtd">
<svg xmlns="http://www.w3.org/2000/svg" version="1.1"
     width="494px" height="210px" viewBox="-15 -119 494 220">
  <defs>
    <style type="text/css"><![CDATA[
      .markmap-node {
        cursor: pointer;
      }

      .markmap-node-circle {
        fill: #fff;
        stroke-width: 1.5px;
      }

      .markmap-node-text {
        fill:  #000;
        font: 10px sans-serif;
      }

      .markmap-link {
        fill: none;
      }
    ]]></style>
  </defs>
  <g><path class="markmap-link" stroke="#ff7f0e" stroke-width="1.5" d="M148.40625,56.25C178.40625,56.25 178.40625,33.75 208.40625,33.75"></path><path class="markmap-link" stroke="#ff7f0e" stroke-width="1.5" d="M148.40625,56.25C178.40625,56.25 178.40625,48.75 208.40625,48.75"></path><path class="markmap-link" stroke="#ff7f0e" stroke-width="1.5" d="M148.40625,56.25C178.40625,56.25 178.40625,63.75 208.40625,63.75"></path><path class="markmap-link" stroke="#ff7f0e" stroke-width="1.5" d="M148.40625,56.25C178.40625,56.25 178.40625,78.75 208.40625,78.75"></path><path class="markmap-link" stroke="#ffbb78" stroke-width="1.5" d="M273.189453125,13.75C303.189453125,13.75 303.189453125,-16.25 333.189453125,-16.25"></path><path class="markmap-link" stroke="#ffbb78" stroke-width="1.5" d="M273.189453125,13.75C303.189453125,13.75 303.189453125,-1.25 333.189453125,-1.25"></path><path class="markmap-link" stroke="#ffbb78" stroke-width="1.5" d="M273.189453125,13.75C303.189453125,13.75 303.189453125,13.75 333.189453125,13.75"></path><path class="markmap-link" stroke="#ffbb78" stroke-width="1.5" d="M273.189453125,13.75C303.189453125,13.75 303.189453125,28.75 333.189453125,28.75"></path><path class="markmap-link" stroke="#ffbb78" stroke-width="1.5" d="M273.189453125,13.75C303.189453125,13.75 303.189453125,43.75 333.189453125,43.75"></path><path class="markmap-link" stroke="#ffbb78" stroke-width="1.5" d="M305.2353515625,-58.75C335.2353515625,-58.75 335.2353515625,-81.25 365.2353515625,-81.25"></path><path class="markmap-link" stroke="#ffbb78" stroke-width="1.5" d="M305.2353515625,-58.75C335.2353515625,-58.75 335.2353515625,-66.25 365.2353515625,-66.25"></path><path class="markmap-link" stroke="#ffbb78" stroke-width="1.5" d="M305.2353515625,-58.75C335.2353515625,-58.75 335.2353515625,-51.25 365.2353515625,-51.25"></path><path class="markmap-link" stroke="#ffbb78" stroke-width="1.5" d="M305.2353515625,-58.75C335.2353515625,-58.75 335.2353515625,-36.25 365.2353515625,-36.25"></path><path class="markmap-link" stroke="#ffbb78" stroke-width="1.5" d="M185.0419921875,-22.5C215.0419921875,-22.5 215.0419921875,-58.75 245.0419921875,-58.75"></path><path class="markmap-link" stroke="#ffbb78" stroke-width="1.5" d="M185.0419921875,-22.5C215.0419921875,-22.5 215.0419921875,13.75 245.0419921875,13.75"></path><path class="markmap-link" stroke="#2ca02c" stroke-width="1.5" d="M156.6044921875,-86.25C186.6044921875,-86.25 186.6044921875,-93.75 216.6044921875,-93.75"></path><path class="markmap-link" stroke="#2ca02c" stroke-width="1.5" d="M156.6044921875,-86.25C186.6044921875,-86.25 186.6044921875,-78.75 216.6044921875,-78.75"></path><path class="markmap-link" stroke="#2ca02c" stroke-width="2" d="M0,0C30,0 30,-86.25 60,-86.25"></path><path class="markmap-link" stroke="#ffbb78" stroke-width="2" d="M0,0C30,0 30,-22.5 60,-22.5"></path><path class="markmap-link" stroke="#ff7f0e" stroke-width="2" d="M0,0C30,0 30,56.25 60,56.25"></path><path class="markmap-link" stroke="#aec7e8" stroke-width="2" d="M0,0C30,0 30,71.25 60,71.25"></path><path class="markmap-link" stroke="#1f77b4" stroke-width="2" d="M0,0C30,0 30,86.25 60,86.25"></path><g class="markmap-node" transform="translate(60,86.25)"><rect class="markmap-node-rect" y="-1" x="-1" width="84" height="2" fill="#1f77b4"></rect><circle class="markmap-node-circle" cx="82" stroke="#1f77b4" r="4.5" style="display: none;"></circle><text class="markmap-node-text" x="10" dy="-5" text-anchor="start" style="fill-opacity: 1;">工具及基本技能</text></g><g class="markmap-node" transform="translate(60,71.25)"><rect class="markmap-node-rect" y="-1" x="-1" width="74" height="2" fill="#aec7e8"></rect><circle class="markmap-node-circle" cx="72" stroke="#aec7e8" r="4.5" style="display: none;"></circle><text class="markmap-node-text" x="10" dy="-5" text-anchor="start" style="fill-opacity: 1;">培训材料共享</text></g><g class="markmap-node" transform="translate(208.40625,78.75)"><rect class="markmap-node-rect" y="-0.75" x="-1" width="104" height="1.5" fill="#ff7f0e"></rect><circle class="markmap-node-circle" cx="102" stroke="#ff7f0e" r="4.5" style="display: none;"></circle><text class="markmap-node-text" x="10" dy="-5" text-anchor="start" style="fill-opacity: 1;">各模块验证技巧分享</text></g><g class="markmap-node" transform="translate(208.40625,63.75)"><rect class="markmap-node-rect" y="-0.75" x="-1" width="114" height="1.5" fill="#ff7f0e"></rect><circle class="markmap-node-circle" cx="112" stroke="#ff7f0e" r="4.5" style="display: none;"></circle><text class="markmap-node-text" x="10" dy="-5" text-anchor="start" style="fill-opacity: 1;">典型电路验证经验分享</text></g><g class="markmap-node" transform="translate(208.40625,48.75)"><rect class="markmap-node-rect" y="-0.75" x="-1" width="73.23828125" height="1.5" fill="#ff7f0e"></rect><circle class="markmap-node-circle" cx="71.23828125" stroke="#ff7f0e" r="4.5" style="display: none;"></circle><text class="markmap-node-text" x="10" dy="-5" text-anchor="start" style="fill-opacity: 1;">典型CBB使用</text></g><g class="markmap-node" transform="translate(208.40625,33.75)"><rect class="markmap-node-rect" y="-0.75" x="-1" width="84" height="1.5" fill="#ff7f0e"></rect><circle class="markmap-node-circle" cx="82" stroke="#ff7f0e" r="4.5" style="display: none;"></circle><text class="markmap-node-text" x="10" dy="-5" text-anchor="start" style="fill-opacity: 1;">验证流程及目标</text></g><g class="markmap-node" transform="translate(60,56.25)"><rect class="markmap-node-rect" y="-1" x="-1" width="90.40625" height="2" fill="#ff7f0e"></rect><circle class="markmap-node-circle" cx="88.40625" stroke="#ff7f0e" r="4.5"></circle><text class="markmap-node-text" x="10" dy="-5" text-anchor="start" style="fill-opacity: 1;">DaVinci验证引导</text></g><g class="markmap-node" transform="translate(333.189453125,43.75)"><rect class="markmap-node-rect" y="-0.75" x="-1" width="73.1064453125" height="1.5" fill="#ffbb78"></rect><circle class="markmap-node-circle" cx="71.1064453125" stroke="#ffbb78" r="4.5" style="display: none;"></circle><text class="markmap-node-text" x="10" dy="-5" text-anchor="start" style="fill-opacity: 1;">ISG 用例介绍</text></g><g class="markmap-node" transform="translate(333.189453125,28.75)"><rect class="markmap-node-rect" y="-0.75" x="-1" width="75.3232421875" height="1.5" fill="#ffbb78"></rect><circle class="markmap-node-circle" cx="73.3232421875" stroke="#ffbb78" r="4.5" style="display: none;"></circle><text class="markmap-node-text" x="10" dy="-5" text-anchor="start" style="fill-opacity: 1;">ISG base介绍</text></g><g class="markmap-node" transform="translate(333.189453125,13.75)"><rect class="markmap-node-rect" y="-0.75" x="-1" width="69.2001953125" height="1.5" fill="#ffbb78"></rect><circle class="markmap-node-circle" cx="67.2001953125" stroke="#ffbb78" r="4.5" style="display: none;"></circle><text class="markmap-node-text" x="10" dy="-5" text-anchor="start" style="fill-opacity: 1;">ISG API介绍</text></g><g class="markmap-node" transform="translate(333.189453125,-1.25)"><rect class="markmap-node-rect" y="-0.75" x="-1" width="50.1474609375" height="1.5" fill="#ffbb78"></rect><circle class="markmap-node-circle" cx="48.1474609375" stroke="#ffbb78" r="4.5" style="display: none;"></circle><text class="markmap-node-text" x="10" dy="-5" text-anchor="start" style="fill-opacity: 1;">ISG框架</text></g><g class="markmap-node" transform="translate(333.189453125,-16.25)"><rect class="markmap-node-rect" y="-0.75" x="-1" width="50.1474609375" height="1.5" fill="#ffbb78"></rect><circle class="markmap-node-circle" cx="48.1474609375" stroke="#ffbb78" r="4.5" style="display: none;"></circle><text class="markmap-node-text" x="10" dy="-5" text-anchor="start" style="fill-opacity: 1;">ISG获取</text></g><g class="markmap-node" transform="translate(245.0419921875,13.75)"><rect class="markmap-node-rect" y="-0.75" x="-1" width="30.1474609375" height="1.5" fill="#ffbb78"></rect><circle class="markmap-node-circle" cx="28.1474609375" stroke="#ffbb78" r="4.5"></circle><text class="markmap-node-text" x="10" dy="-5" text-anchor="start" style="fill-opacity: 1;">ISG</text></g><g class="markmap-node" transform="translate(365.2353515625,-36.25)"><rect class="markmap-node-rect" y="-0.75" x="-1" width="101.1533203125" height="1.5" fill="#ffbb78"></rect><circle class="markmap-node-circle" cx="99.1533203125" stroke="#ffbb78" r="4.5" style="display: none;"></circle><text class="markmap-node-text" x="10" dy="-5" text-anchor="start" style="fill-opacity: 1;">generator开发技巧</text></g><g class="markmap-node" transform="translate(365.2353515625,-51.25)"><rect class="markmap-node-rect" y="-0.75" x="-1" width="101.1533203125" height="1.5" fill="#ffbb78"></rect><circle class="markmap-node-circle" cx="99.1533203125" stroke="#ffbb78" r="4.5" style="display: none;"></circle><text class="markmap-node-text" x="10" dy="-5" text-anchor="start" style="fill-opacity: 1;">generator开发流程</text></g><g class="markmap-node" transform="translate(365.2353515625,-66.25)"><rect class="markmap-node-rect" y="-0.75" x="-1" width="81.1533203125" height="1.5" fill="#ffbb78"></rect><circle class="markmap-node-circle" cx="79.1533203125" stroke="#ffbb78" r="4.5" style="display: none;"></circle><text class="markmap-node-text" x="10" dy="-5" text-anchor="start" style="fill-opacity: 1;">generator框架</text></g><g class="markmap-node" transform="translate(365.2353515625,-81.25)"><rect class="markmap-node-rect" y="-0.75" x="-1" width="81.1533203125" height="1.5" fill="#ffbb78"></rect><circle class="markmap-node-circle" cx="79.1533203125" stroke="#ffbb78" r="4.5" style="display: none;"></circle><text class="markmap-node-text" x="10" dy="-5" text-anchor="start" style="fill-opacity: 1;">generator获取</text></g><g class="markmap-node" transform="translate(245.0419921875,-58.75)"><rect class="markmap-node-rect" y="-0.75" x="-1" width="62.193359375" height="1.5" fill="#ffbb78"></rect><circle class="markmap-node-circle" cx="60.193359375" stroke="#ffbb78" r="4.5"></circle><text class="markmap-node-text" x="10" dy="-5" text-anchor="start" style="fill-opacity: 1;">Generator</text></g><g class="markmap-node" transform="translate(60,-22.5)"><rect class="markmap-node-rect" y="-1" x="-1" width="127.0419921875" height="2" fill="#ffbb78"></rect><circle class="markmap-node-circle" cx="125.0419921875" stroke="#ffbb78" r="4.5"></circle><text class="markmap-node-text" x="10" dy="-5" text-anchor="start" style="fill-opacity: 1;">ISG&amp;Generator上手引导</text></g><g class="markmap-node" transform="translate(216.6044921875,-78.75)"><rect class="markmap-node-rect" y="-0.75" x="-1" width="123.052734375" height="1.5" fill="#2ca02c"></rect><circle class="markmap-node-circle" cx="121.052734375" stroke="#2ca02c" r="4.5" style="display: none;"></circle><text class="markmap-node-text" x="10" dy="-5" text-anchor="start" style="fill-opacity: 1;">aicore指令集及演进过程</text></g><g class="markmap-node" transform="translate(216.6044921875,-93.75)"><rect class="markmap-node-rect" y="-0.75" x="-1" width="104" height="1.5" fill="#2ca02c"></rect><circle class="markmap-node-circle" cx="102" stroke="#2ca02c" r="4.5" style="display: none;"></circle><text class="markmap-node-text" x="10" dy="-5" text-anchor="start" style="fill-opacity: 1;">深度学习及神经网络</text></g><g class="markmap-node" transform="translate(60,-86.25)"><rect class="markmap-node-rect" y="-1" x="-1" width="98.6044921875" height="2" fill="#2ca02c"></rect><circle class="markmap-node-circle" cx="96.6044921875" stroke="#2ca02c" r="4.5"></circle><text class="markmap-node-text" x="10" dy="-5" text-anchor="start" style="fill-opacity: 1;">DACVinci架构熟悉</text></g><g class="markmap-node" transform="translate(0,0)"><rect class="markmap-node-rect" y="-3" x="-1" width="2" height="6" fill="#98df8a"></rect><circle class="markmap-node-circle" cx="0" stroke="#98df8a" r="4.5"></circle><text class="markmap-node-text" x="10" dy="-5" text-anchor="start" style="fill-opacity: 1;"></text></g></g>
</svg>